<?xml version="1.0" standalone="no"?><!DOCTYPE svg PUBLIC "-//W3C//DTD SVG 1.1//EN" "http://www.w3.org/Graphics/SVG/1.1/DTD/svg11.dtd"><svg t="1533696521190" class="icon" style="" viewBox="0 0 1024 1024" version="1.1" xmlns="http://www.w3.org/2000/svg" p-id="16980" xmlns:xlink="http://www.w3.org/1999/xlink" width="20" height="20"><defs><style type="text/css"></style></defs><path d="M7.450557 182.312865h1009.098886v659.37427H7.450557z" fill="#E60012" p-id="16981"></path><path d="M409.329071 350.289053l32.285745-11.853158 21.222798 27.20582-1.354646-34.317715 32.398633-11.740272-33.075957-9.482526-1.128872-34.430603-19.190828 28.673354-33.075956-9.595414 21.222798 27.092934zM273.18708 431.454966l-34.656378-107.129974-34.54349 107.129974-112.548561-0.112887 91.212876 65.926138-34.995039 107.017088 90.874214-66.377687 90.987102 66.377687-34.995039-107.017088 91.212876-65.926138zM536.552971 435.857568v34.430603l20.093926-27.883144 32.737294 10.611399-20.206813-27.770257 20.206813-27.770257-32.737294 10.724286-20.093926-27.883144v34.430603l-32.737295 10.498512zM596.383199 566.242311l-34.430603 0.112887-10.498512-32.737295-10.611399 32.737295-34.430603-0.112887 27.883145 20.206813-10.724287 32.737294 27.883144-20.3197 27.770257 20.3197-10.724286-32.737294zM461.37008 673.823834v-34.317716l-20.093925 27.883144-32.737295-10.724286 20.206813 27.770257-20.206813 27.883144 32.737295-10.724286 20.093925 27.883144v-34.430603l32.737295-10.611399z" fill="#FFF100" p-id="16982"></path></svg>